<mxfile host="app.diagrams.net" agent="Mozilla/5.0 (X11; Linux x86_64) AppleWebKit/537.36 (KHTML, like Gecko) Chrome/131.0.0.0 Safari/537.36" version="25.0.3">
  <diagram name="Page-1" id="bxmt5OmR7mhqBll5KJgz">
    <mxGraphModel dx="1364" dy="799" grid="1" gridSize="10" guides="1" tooltips="1" connect="1" arrows="1" fold="1" page="1" pageScale="1" pageWidth="850" pageHeight="1100" math="0" shadow="0">
      <root>
        <mxCell id="0" />
        <mxCell id="1" parent="0" />
        <mxCell id="v3M7lqjooFDRWO9AKOZ7-1" value="Translate sequences" style="rounded=1;whiteSpace=wrap;html=1;absoluteArcSize=1;arcSize=14;strokeWidth=2;fillColor=#dae8fc;strokeColor=#6c8ebf;" parent="1" vertex="1">
          <mxGeometry x="40" y="120" width="100" height="100" as="geometry" />
        </mxCell>
        <mxCell id="v3M7lqjooFDRWO9AKOZ7-3" style="edgeStyle=orthogonalEdgeStyle;rounded=0;orthogonalLoop=1;jettySize=auto;html=1;entryX=0.5;entryY=0;entryDx=0;entryDy=0;" parent="1" source="v3M7lqjooFDRWO9AKOZ7-2" target="v3M7lqjooFDRWO9AKOZ7-1" edge="1">
          <mxGeometry relative="1" as="geometry" />
        </mxCell>
        <mxCell id="v3M7lqjooFDRWO9AKOZ7-2" value="Query&lt;div&gt;Schema&lt;/div&gt;" style="strokeWidth=2;html=1;shape=mxgraph.flowchart.multi-document;whiteSpace=wrap;fillColor=#e1d5e7;strokeColor=#9673a6;" parent="1" vertex="1">
          <mxGeometry x="46" y="20" width="88" height="60" as="geometry" />
        </mxCell>
        <mxCell id="BJneLO5AT9rQKqXg1MKZ-2" style="edgeStyle=orthogonalEdgeStyle;rounded=0;orthogonalLoop=1;jettySize=auto;html=1;entryX=0.5;entryY=1;entryDx=0;entryDy=0;" edge="1" parent="1" source="v3M7lqjooFDRWO9AKOZ7-4" target="BJneLO5AT9rQKqXg1MKZ-1">
          <mxGeometry relative="1" as="geometry" />
        </mxCell>
        <mxCell id="v3M7lqjooFDRWO9AKOZ7-4" value="Subject&amp;nbsp;&lt;div&gt;Schema&lt;/div&gt;" style="strokeWidth=2;html=1;shape=mxgraph.flowchart.multi-document;whiteSpace=wrap;fillColor=#e1d5e7;strokeColor=#9673a6;" parent="1" vertex="1">
          <mxGeometry x="46" y="560" width="88" height="60" as="geometry" />
        </mxCell>
        <mxCell id="BJneLO5AT9rQKqXg1MKZ-6" style="edgeStyle=orthogonalEdgeStyle;rounded=0;orthogonalLoop=1;jettySize=auto;html=1;entryX=0.5;entryY=1;entryDx=0;entryDy=0;" edge="1" parent="1" source="v3M7lqjooFDRWO9AKOZ7-9" target="v3M7lqjooFDRWO9AKOZ7-16">
          <mxGeometry relative="1" as="geometry" />
        </mxCell>
        <mxCell id="BJneLO5AT9rQKqXg1MKZ-10" style="edgeStyle=orthogonalEdgeStyle;rounded=0;orthogonalLoop=1;jettySize=auto;html=1;entryX=0;entryY=0.5;entryDx=0;entryDy=0;" edge="1" parent="1" source="v3M7lqjooFDRWO9AKOZ7-9" target="v3M7lqjooFDRWO9AKOZ7-24">
          <mxGeometry relative="1" as="geometry">
            <Array as="points">
              <mxPoint x="210" y="280" />
              <mxPoint x="210" y="320" />
            </Array>
          </mxGeometry>
        </mxCell>
        <mxCell id="v3M7lqjooFDRWO9AKOZ7-9" value="Query Translations" style="strokeWidth=2;html=1;shape=mxgraph.flowchart.multi-document;whiteSpace=wrap;fillColor=#f8cecc;strokeColor=#b85450;" parent="1" vertex="1">
          <mxGeometry x="46" y="250" width="88" height="60" as="geometry" />
        </mxCell>
        <mxCell id="BJneLO5AT9rQKqXg1MKZ-8" style="edgeStyle=orthogonalEdgeStyle;rounded=0;orthogonalLoop=1;jettySize=auto;html=1;entryX=0.5;entryY=0;entryDx=0;entryDy=0;" edge="1" parent="1" source="v3M7lqjooFDRWO9AKOZ7-13" target="v3M7lqjooFDRWO9AKOZ7-20">
          <mxGeometry relative="1" as="geometry" />
        </mxCell>
        <mxCell id="v3M7lqjooFDRWO9AKOZ7-13" value="Subject Translations" style="strokeWidth=2;html=1;shape=mxgraph.flowchart.multi-document;whiteSpace=wrap;fillColor=#f8cecc;strokeColor=#b85450;" parent="1" vertex="1">
          <mxGeometry x="46" y="330" width="88" height="60" as="geometry" />
        </mxCell>
        <mxCell id="BJneLO5AT9rQKqXg1MKZ-12" style="edgeStyle=orthogonalEdgeStyle;rounded=0;orthogonalLoop=1;jettySize=auto;html=1;entryX=0.5;entryY=0;entryDx=0;entryDy=0;" edge="1" parent="1" source="v3M7lqjooFDRWO9AKOZ7-16" target="v3M7lqjooFDRWO9AKOZ7-24">
          <mxGeometry relative="1" as="geometry" />
        </mxCell>
        <mxCell id="v3M7lqjooFDRWO9AKOZ7-16" value="Calculate self-score" style="rounded=1;whiteSpace=wrap;html=1;absoluteArcSize=1;arcSize=14;strokeWidth=2;fillColor=#dae8fc;strokeColor=#6c8ebf;" parent="1" vertex="1">
          <mxGeometry x="160" y="120" width="100" height="100" as="geometry" />
        </mxCell>
        <mxCell id="v3M7lqjooFDRWO9AKOZ7-18" value="self_score_&lt;div&gt;folder&lt;/div&gt;" style="strokeWidth=2;html=1;shape=mxgraph.flowchart.multi-document;whiteSpace=wrap;fillColor=#f8cecc;strokeColor=#b85450;" parent="1" vertex="1">
          <mxGeometry x="166" y="20" width="88" height="60" as="geometry" />
        </mxCell>
        <mxCell id="v3M7lqjooFDRWO9AKOZ7-20" value="Create BLASTp database" style="rounded=1;whiteSpace=wrap;html=1;absoluteArcSize=1;arcSize=14;strokeWidth=2;fillColor=#dae8fc;strokeColor=#6c8ebf;" parent="1" vertex="1">
          <mxGeometry x="160" y="420" width="100" height="100" as="geometry" />
        </mxCell>
        <mxCell id="BJneLO5AT9rQKqXg1MKZ-11" style="edgeStyle=orthogonalEdgeStyle;rounded=0;orthogonalLoop=1;jettySize=auto;html=1;entryX=0.5;entryY=1;entryDx=0;entryDy=0;" edge="1" parent="1" source="v3M7lqjooFDRWO9AKOZ7-22" target="v3M7lqjooFDRWO9AKOZ7-24">
          <mxGeometry relative="1" as="geometry" />
        </mxCell>
        <mxCell id="v3M7lqjooFDRWO9AKOZ7-22" value="Blast_db_&lt;div&gt;prot&lt;/div&gt;" style="strokeWidth=2;html=1;shape=mxgraph.flowchart.multi-document;whiteSpace=wrap;fillColor=#f8cecc;strokeColor=#b85450;" parent="1" vertex="1">
          <mxGeometry x="166" y="560" width="88" height="60" as="geometry" />
        </mxCell>
        <mxCell id="BJneLO5AT9rQKqXg1MKZ-15" style="edgeStyle=orthogonalEdgeStyle;rounded=0;orthogonalLoop=1;jettySize=auto;html=1;entryX=0;entryY=0.5;entryDx=0;entryDy=0;" edge="1" parent="1" source="v3M7lqjooFDRWO9AKOZ7-24" target="v3M7lqjooFDRWO9AKOZ7-28">
          <mxGeometry relative="1" as="geometry" />
        </mxCell>
        <mxCell id="v3M7lqjooFDRWO9AKOZ7-24" value="Run BLASTp" style="rounded=1;whiteSpace=wrap;html=1;absoluteArcSize=1;arcSize=14;strokeWidth=2;fillColor=#dae8fc;strokeColor=#6c8ebf;" parent="1" vertex="1">
          <mxGeometry x="290" y="270" width="100" height="100" as="geometry" />
        </mxCell>
        <mxCell id="v3M7lqjooFDRWO9AKOZ7-26" value="blastp_&lt;div&gt;results&lt;/div&gt;" style="strokeWidth=2;html=1;shape=mxgraph.flowchart.multi-document;whiteSpace=wrap;fillColor=#f8cecc;strokeColor=#b85450;" parent="1" vertex="1">
          <mxGeometry x="400" y="200" width="88" height="60" as="geometry" />
        </mxCell>
        <mxCell id="v3M7lqjooFDRWO9AKOZ7-28" value="Write Results" style="rounded=1;whiteSpace=wrap;html=1;absoluteArcSize=1;arcSize=14;strokeWidth=2;fillColor=#dae8fc;strokeColor=#6c8ebf;" parent="1" vertex="1">
          <mxGeometry x="410" y="270" width="100" height="100" as="geometry" />
        </mxCell>
        <mxCell id="v3M7lqjooFDRWO9AKOZ7-30" value="best_blast_&lt;div&gt;matches.tsv&lt;/div&gt;" style="strokeWidth=2;html=1;shape=mxgraph.flowchart.document2;whiteSpace=wrap;size=0.25;fillColor=#d5e8d4;strokeColor=#82b366;" parent="1" vertex="1">
          <mxGeometry x="410" y="400" width="100" height="60" as="geometry" />
        </mxCell>
        <mxCell id="BJneLO5AT9rQKqXg1MKZ-1" value="Translate sequences" style="rounded=1;whiteSpace=wrap;html=1;absoluteArcSize=1;arcSize=14;strokeWidth=2;fillColor=#dae8fc;strokeColor=#6c8ebf;" vertex="1" parent="1">
          <mxGeometry x="40" y="420" width="100" height="100" as="geometry" />
        </mxCell>
        <mxCell id="BJneLO5AT9rQKqXg1MKZ-4" style="edgeStyle=orthogonalEdgeStyle;rounded=0;orthogonalLoop=1;jettySize=auto;html=1;entryX=0.5;entryY=0;entryDx=0;entryDy=0;entryPerimeter=0;" edge="1" parent="1" source="v3M7lqjooFDRWO9AKOZ7-1" target="v3M7lqjooFDRWO9AKOZ7-9">
          <mxGeometry relative="1" as="geometry" />
        </mxCell>
        <mxCell id="BJneLO5AT9rQKqXg1MKZ-5" style="edgeStyle=orthogonalEdgeStyle;rounded=0;orthogonalLoop=1;jettySize=auto;html=1;entryX=0.5;entryY=0.88;entryDx=0;entryDy=0;entryPerimeter=0;" edge="1" parent="1" source="BJneLO5AT9rQKqXg1MKZ-1" target="v3M7lqjooFDRWO9AKOZ7-13">
          <mxGeometry relative="1" as="geometry" />
        </mxCell>
        <mxCell id="BJneLO5AT9rQKqXg1MKZ-7" style="edgeStyle=orthogonalEdgeStyle;rounded=0;orthogonalLoop=1;jettySize=auto;html=1;entryX=0.5;entryY=0.88;entryDx=0;entryDy=0;entryPerimeter=0;" edge="1" parent="1" source="v3M7lqjooFDRWO9AKOZ7-16" target="v3M7lqjooFDRWO9AKOZ7-18">
          <mxGeometry relative="1" as="geometry" />
        </mxCell>
        <mxCell id="BJneLO5AT9rQKqXg1MKZ-9" style="edgeStyle=orthogonalEdgeStyle;rounded=0;orthogonalLoop=1;jettySize=auto;html=1;entryX=0.5;entryY=0;entryDx=0;entryDy=0;entryPerimeter=0;" edge="1" parent="1" source="v3M7lqjooFDRWO9AKOZ7-20" target="v3M7lqjooFDRWO9AKOZ7-22">
          <mxGeometry relative="1" as="geometry" />
        </mxCell>
        <mxCell id="BJneLO5AT9rQKqXg1MKZ-14" style="edgeStyle=orthogonalEdgeStyle;rounded=0;orthogonalLoop=1;jettySize=auto;html=1;exitX=0.75;exitY=0;exitDx=0;exitDy=0;entryX=0;entryY=0.5;entryDx=0;entryDy=0;entryPerimeter=0;" edge="1" parent="1" source="v3M7lqjooFDRWO9AKOZ7-24" target="v3M7lqjooFDRWO9AKOZ7-26">
          <mxGeometry relative="1" as="geometry" />
        </mxCell>
        <mxCell id="BJneLO5AT9rQKqXg1MKZ-22" style="edgeStyle=orthogonalEdgeStyle;rounded=0;orthogonalLoop=1;jettySize=auto;html=1;entryX=0.5;entryY=0;entryDx=0;entryDy=0;entryPerimeter=0;" edge="1" parent="1" source="v3M7lqjooFDRWO9AKOZ7-28" target="v3M7lqjooFDRWO9AKOZ7-30">
          <mxGeometry relative="1" as="geometry" />
        </mxCell>
        <mxCell id="BJneLO5AT9rQKqXg1MKZ-33" value="Processes" style="rounded=0;whiteSpace=wrap;html=1;fillColor=#dae8fc;strokeColor=#6c8ebf;" vertex="1" parent="1">
          <mxGeometry x="710" y="410" width="120" height="60" as="geometry" />
        </mxCell>
        <mxCell id="BJneLO5AT9rQKqXg1MKZ-34" value="Temporary files" style="rounded=0;whiteSpace=wrap;html=1;fillColor=#f8cecc;strokeColor=#b85450;" vertex="1" parent="1">
          <mxGeometry x="710" y="490" width="120" height="60" as="geometry" />
        </mxCell>
        <mxCell id="BJneLO5AT9rQKqXg1MKZ-35" value="Input files" style="rounded=0;whiteSpace=wrap;html=1;fillColor=#e1d5e7;strokeColor=#9673a6;" vertex="1" parent="1">
          <mxGeometry x="710" y="330" width="120" height="60" as="geometry" />
        </mxCell>
        <mxCell id="BJneLO5AT9rQKqXg1MKZ-36" value="Output files" style="rounded=0;whiteSpace=wrap;html=1;fillColor=#d5e8d4;strokeColor=#82b366;" vertex="1" parent="1">
          <mxGeometry x="710" y="570" width="120" height="60" as="geometry" />
        </mxCell>
        <mxCell id="BJneLO5AT9rQKqXg1MKZ-37" value="Color description:" style="text;html=1;align=center;verticalAlign=middle;resizable=0;points=[];autosize=1;strokeColor=none;fillColor=none;" vertex="1" parent="1">
          <mxGeometry x="600" y="285" width="110" height="30" as="geometry" />
        </mxCell>
      </root>
    </mxGraphModel>
  </diagram>
</mxfile>
